<svg width="40" height="39" viewBox="0 0 40 39" fill="none" xmlns="http://www.w3.org/2000/svg">
<path d="M37.5354 19.3632C37.5354 28.7156 29.862 36.306 20.3881 36.306C10.9142 36.306 3.24072 28.7156 3.24072 19.3632C3.24072 10.0023 10.9142 2.42041 20.3881 2.42041C29.862 2.42041 37.5354 10.0023 37.5354 19.3632Z" fill="#283544"/>
<path d="M28.4252 15.0759C28.3317 15.1299 26.1042 16.2681 26.1042 18.7918C26.2092 21.67 28.9152 22.6793 28.9616 22.6793C28.9152 22.7332 28.553 24.0543 27.4804 25.4391C26.6291 26.632 25.6842 27.8346 24.2495 27.8346C22.8847 27.8346 22.3947 27.0396 20.82 27.0396C19.1288 27.0396 18.6503 27.8346 17.3555 27.8346C15.9207 27.8346 14.9059 26.5675 14.0082 25.3859C12.8419 23.8393 11.8507 21.4122 11.8157 19.0818C11.7921 17.8469 12.0492 16.633 12.702 15.602C13.6232 14.1626 15.268 13.1854 17.0641 13.1532C18.4403 13.1105 19.6651 14.0232 20.505 14.0232C21.3099 14.0232 22.8147 13.1532 24.5172 13.1532C25.2521 13.1539 27.2118 13.3577 28.4252 15.0759ZM20.3886 12.9066C20.1437 11.7789 20.82 10.6512 21.4499 9.93184C22.2548 9.06188 23.526 8.47141 24.6222 8.47141C24.6922 9.59913 24.2487 10.7051 23.456 11.5107C22.7447 12.3806 21.5199 13.0355 20.3886 12.9066Z" fill="white"/>
</svg>
